<svg width="24" height="24" viewBox="0 0 24 24" fill="none" xmlns="http://www.w3.org/2000/svg">
<g filter="url(#filter0_dii_2594_1327)">
<path fill-rule="evenodd" clip-rule="evenodd" d="M1.71436 4.5715C1.71436 2.99354 2.99354 1.71436 4.5715 1.71436H17.4286C19.0066 1.71436 20.2858 2.99354 20.2858 4.5715V17.4286C20.2858 19.0066 19.0066 20.2858 17.4286 20.2858H4.5715C2.99354 20.2858 1.71436 19.0066 1.71436 17.4286V4.5715ZM4.5715 3.14293C3.78252 3.14293 3.14293 3.78252 3.14293 4.5715V17.4286C3.14293 18.2176 3.78252 18.8572 4.5715 18.8572H17.4286C18.2176 18.8572 18.8572 18.2176 18.8572 17.4286V4.5715C18.8572 3.78252 18.2176 3.14293 17.4286 3.14293H4.5715Z" fill="url(#paint0_radial_2594_1327)"/>
<path fill-rule="evenodd" clip-rule="evenodd" d="M11.0001 16.4082C12.2962 16.4082 13.347 15.3575 13.347 14.0613C13.347 12.7651 12.2962 11.7144 11.0001 11.7144C9.70389 11.7144 8.65313 12.7651 8.65313 14.0613C8.65313 15.3575 9.70389 16.4082 11.0001 16.4082ZM11.0001 17.1225C12.6907 17.1225 14.0613 15.752 14.0613 14.0613C14.0613 12.3706 12.6907 11.0001 11.0001 11.0001C9.3094 11.0001 7.93885 12.3706 7.93885 14.0613C7.93885 15.752 9.3094 17.1225 11.0001 17.1225Z" fill="url(#paint1_radial_2594_1327)"/>
<path fill-rule="evenodd" clip-rule="evenodd" d="M11.0001 12.3922C11.1974 12.3922 11.3573 12.5521 11.3573 12.7494V15.3733C11.3573 15.5705 11.1974 15.7304 11.0001 15.7304C10.8029 15.7304 10.643 15.5705 10.643 15.3733V12.7494C10.643 12.5521 10.8029 12.3922 11.0001 12.3922Z" fill="url(#paint2_radial_2594_1327)"/>
<path fill-rule="evenodd" clip-rule="evenodd" d="M9.33088 14.0613C9.33088 13.864 9.49078 13.7042 9.68803 13.7042H12.3119C12.5092 13.7042 12.6691 13.864 12.6691 14.0613C12.6691 14.2585 12.5092 14.4184 12.3119 14.4184H9.68803C9.49078 14.4184 9.33088 14.2585 9.33088 14.0613Z" fill="url(#paint3_radial_2594_1327)"/>
<path d="M5.48987 9.16334H6.5158V6.83298L8.04219 9.16334H9.23703V5.48987H8.21735V7.8317L6.73475 5.48987H5.48987V9.16334Z" fill="url(#paint4_radial_2594_1327)"/>
<path d="M10.5474 9.16334H11.5546V7.79152H13.2686V7.07405H11.5546V6.24752H13.4062V5.48987H10.5474V9.16334Z" fill="url(#paint5_radial_2594_1327)"/>
<path d="M15.1144 9.16334H16.1154V6.24752H17.1225V5.48987H14.1073V6.24752H15.1144V9.16334Z" fill="url(#paint6_radial_2594_1327)"/>
</g>
<defs>
<filter id="filter0_dii_2594_1327" x="0.703152" y="0.703152" width="22.6161" height="22.6161" filterUnits="userSpaceOnUse" color-interpolation-filters="sRGB">
<feFlood flood-opacity="0" result="BackgroundImageFix"/>
<feColorMatrix in="SourceAlpha" type="matrix" values="0 0 0 0 0 0 0 0 0 0 0 0 0 0 0 0 0 0 127 0" result="hardAlpha"/>
<feOffset dx="1.0112" dy="1.0112"/>
<feGaussianBlur stdDeviation="1.0112"/>
<feComposite in2="hardAlpha" operator="out"/>
<feColorMatrix type="matrix" values="0 0 0 0 0 0 0 0 0 0 0 0 0 0 0 0 0 0 0.2 0"/>
<feBlend mode="normal" in2="BackgroundImageFix" result="effect1_dropShadow_2594_1327"/>
<feBlend mode="normal" in="SourceGraphic" in2="effect1_dropShadow_2594_1327" result="shape"/>
<feColorMatrix in="SourceAlpha" type="matrix" values="0 0 0 0 0 0 0 0 0 0 0 0 0 0 0 0 0 0 127 0" result="hardAlpha"/>
<feOffset dx="1.0112" dy="1.0112"/>
<feGaussianBlur stdDeviation="0.713028"/>
<feComposite in2="hardAlpha" operator="arithmetic" k2="-1" k3="1"/>
<feColorMatrix type="matrix" values="0 0 0 0 1 0 0 0 0 0.826864 0 0 0 0 0.395947 0 0 0 1 0"/>
<feBlend mode="normal" in2="shape" result="effect2_innerShadow_2594_1327"/>
<feColorMatrix in="SourceAlpha" type="matrix" values="0 0 0 0 0 0 0 0 0 0 0 0 0 0 0 0 0 0 127 0" result="hardAlpha"/>
<feOffset dx="-1.0112" dy="-1.0112"/>
<feGaussianBlur stdDeviation="1.0112"/>
<feComposite in2="hardAlpha" operator="arithmetic" k2="-1" k3="1"/>
<feColorMatrix type="matrix" values="0 0 0 0 0 0 0 0 0 0 0 0 0 0 0 0 0 0 0.2 0"/>
<feBlend mode="normal" in2="effect2_innerShadow_2594_1327" result="effect3_innerShadow_2594_1327"/>
</filter>
<radialGradient id="paint0_radial_2594_1327" cx="0" cy="0" r="1" gradientUnits="userSpaceOnUse" gradientTransform="translate(11.0001 11.0001) scale(9.28572)">
<stop offset="0.473958" stop-color="#FFC640"/>
<stop offset="1" stop-color="#F2AF13"/>
</radialGradient>
<radialGradient id="paint1_radial_2594_1327" cx="0" cy="0" r="1" gradientUnits="userSpaceOnUse" gradientTransform="translate(11.0001 11.0001) scale(9.28572)">
<stop offset="0.473958" stop-color="#FFC640"/>
<stop offset="1" stop-color="#F2AF13"/>
</radialGradient>
<radialGradient id="paint2_radial_2594_1327" cx="0" cy="0" r="1" gradientUnits="userSpaceOnUse" gradientTransform="translate(11.0001 11.0001) scale(9.28572)">
<stop offset="0.473958" stop-color="#FFC640"/>
<stop offset="1" stop-color="#F2AF13"/>
</radialGradient>
<radialGradient id="paint3_radial_2594_1327" cx="0" cy="0" r="1" gradientUnits="userSpaceOnUse" gradientTransform="translate(11.0001 11.0001) scale(9.28572)">
<stop offset="0.473958" stop-color="#FFC640"/>
<stop offset="1" stop-color="#F2AF13"/>
</radialGradient>
<radialGradient id="paint4_radial_2594_1327" cx="0" cy="0" r="1" gradientUnits="userSpaceOnUse" gradientTransform="translate(11.0001 11.0001) scale(9.28572)">
<stop offset="0.473958" stop-color="#FFC640"/>
<stop offset="1" stop-color="#F2AF13"/>
</radialGradient>
<radialGradient id="paint5_radial_2594_1327" cx="0" cy="0" r="1" gradientUnits="userSpaceOnUse" gradientTransform="translate(11.0001 11.0001) scale(9.28572)">
<stop offset="0.473958" stop-color="#FFC640"/>
<stop offset="1" stop-color="#F2AF13"/>
</radialGradient>
<radialGradient id="paint6_radial_2594_1327" cx="0" cy="0" r="1" gradientUnits="userSpaceOnUse" gradientTransform="translate(11.0001 11.0001) scale(9.28572)">
<stop offset="0.473958" stop-color="#FFC640"/>
<stop offset="1" stop-color="#F2AF13"/>
</radialGradient>
</defs>
</svg>
