<svg width="21" height="21" viewBox="0 0 21 21" fill="none" xmlns="http://www.w3.org/2000/svg">
<g filter="url(#filter0_dii_3059_7780)">
<path fill-rule="evenodd" clip-rule="evenodd" d="M9.48206 2.86191C9.48171 3.2564 9.16163 3.57592 8.76715 3.57557L4.29634 3.57164C3.90185 3.57129 3.58178 3.89081 3.58143 4.2853L3.57139 15.7087C3.57105 16.1032 3.89056 16.4233 4.28505 16.4236L8.75586 16.4275C9.15034 16.4279 9.46986 16.748 9.46951 17.1424C9.46917 17.5369 9.14909 17.8564 8.7546 17.8561L4.2838 17.8522C3.10033 17.8511 2.14178 16.8909 2.14282 15.7074L2.15286 4.28404C2.1539 3.10057 3.11413 2.14203 4.2976 2.14307L8.7684 2.147C9.16289 2.14735 9.4824 2.46742 9.48206 2.86191Z" fill="url(#paint0_radial_3059_7780)"/>
<path fill-rule="evenodd" clip-rule="evenodd" d="M16.9572 9.12245C17.6306 9.69366 17.6297 10.7329 16.9553 11.3029L13.3802 14.3248C13.0789 14.5794 12.6282 14.5416 12.3736 14.2404C12.1189 13.9391 12.1567 13.4884 12.458 13.2337L15.189 10.9254L6.12685 10.9174C5.73236 10.9171 5.41284 10.597 5.41319 10.2025C5.41353 9.80804 5.73361 9.48852 6.1281 9.48887L15.1902 9.49684L12.4633 7.1837C12.1625 6.92852 12.1255 6.47777 12.3807 6.17694C12.6359 5.8761 13.0866 5.8391 13.3874 6.09429L16.9572 9.12245Z" fill="url(#paint1_radial_3059_7780)"/>
</g>
<defs>
<filter id="filter0_dii_3059_7780" x="1.13162" y="1.13186" width="19.3637" height="19.7577" filterUnits="userSpaceOnUse" color-interpolation-filters="sRGB">
<feFlood flood-opacity="0" result="BackgroundImageFix"/>
<feColorMatrix in="SourceAlpha" type="matrix" values="0 0 0 0 0 0 0 0 0 0 0 0 0 0 0 0 0 0 127 0" result="hardAlpha"/>
<feOffset dx="1.0112" dy="1.0112"/>
<feGaussianBlur stdDeviation="1.0112"/>
<feComposite in2="hardAlpha" operator="out"/>
<feColorMatrix type="matrix" values="0 0 0 0 0 0 0 0 0 0 0 0 0 0 0 0 0 0 0.2 0"/>
<feBlend mode="normal" in2="BackgroundImageFix" result="effect1_dropShadow_3059_7780"/>
<feBlend mode="normal" in="SourceGraphic" in2="effect1_dropShadow_3059_7780" result="shape"/>
<feColorMatrix in="SourceAlpha" type="matrix" values="0 0 0 0 0 0 0 0 0 0 0 0 0 0 0 0 0 0 127 0" result="hardAlpha"/>
<feOffset dx="1.0112" dy="1.0112"/>
<feGaussianBlur stdDeviation="0.713028"/>
<feComposite in2="hardAlpha" operator="arithmetic" k2="-1" k3="1"/>
<feColorMatrix type="matrix" values="0 0 0 0 1 0 0 0 0 0.826864 0 0 0 0 0.395947 0 0 0 1 0"/>
<feBlend mode="normal" in2="shape" result="effect2_innerShadow_3059_7780"/>
<feColorMatrix in="SourceAlpha" type="matrix" values="0 0 0 0 0 0 0 0 0 0 0 0 0 0 0 0 0 0 127 0" result="hardAlpha"/>
<feOffset dx="-1.0112" dy="-1.0112"/>
<feGaussianBlur stdDeviation="1.0112"/>
<feComposite in2="hardAlpha" operator="arithmetic" k2="-1" k3="1"/>
<feColorMatrix type="matrix" values="0 0 0 0 0 0 0 0 0 0 0 0 0 0 0 0 0 0 0.2 0"/>
<feBlend mode="normal" in2="effect2_innerShadow_3059_7780" result="effect3_innerShadow_3059_7780"/>
</filter>
<radialGradient id="paint0_radial_3059_7780" cx="0" cy="0" r="1" gradientUnits="userSpaceOnUse" gradientTransform="translate(9.80226 9.99958) scale(7.65944 7.85652)">
<stop offset="0.473958" stop-color="#FFC640"/>
<stop offset="1" stop-color="#F2AF13"/>
</radialGradient>
<radialGradient id="paint1_radial_3059_7780" cx="0" cy="0" r="1" gradientUnits="userSpaceOnUse" gradientTransform="translate(9.80226 9.99958) scale(7.65944 7.85652)">
<stop offset="0.473958" stop-color="#FFC640"/>
<stop offset="1" stop-color="#F2AF13"/>
</radialGradient>
</defs>
</svg>
