<svg width="24" height="24" viewBox="0 0 24 24" fill="none" xmlns="http://www.w3.org/2000/svg">
<g filter="url(#filter0_dii_3059_7736)">
<path fill-rule="evenodd" clip-rule="evenodd" d="M1.71429 4.5715C1.71429 2.99354 2.99348 1.71436 4.57144 1.71436H17.4286C19.0065 1.71436 20.2857 2.99354 20.2857 4.5715V17.4286C20.2857 19.0066 19.0065 20.2858 17.4286 20.2858H4.57144C2.99348 20.2858 1.71429 19.0066 1.71429 17.4286V4.5715ZM4.57144 3.14293C3.78246 3.14293 3.14287 3.78252 3.14287 4.5715V17.4286C3.14287 18.2176 3.78246 18.8572 4.57144 18.8572H17.4286C18.2176 18.8572 18.8572 18.2176 18.8572 17.4286V4.5715C18.8572 3.78252 18.2176 3.14293 17.4286 3.14293H4.57144Z" fill="url(#paint0_radial_3059_7736)"/>
<path d="M5.4898 13.1633H6.51574V10.833L8.04213 13.1633H9.23696V9.48987H8.21729V11.8317L6.73469 9.48987H5.4898V13.1633Z" fill="url(#paint1_radial_3059_7736)"/>
<path d="M10.5473 13.1633H11.5545V11.7915H13.2686V11.074H11.5545V10.2475H13.4062V9.48987H10.5473V13.1633Z" fill="url(#paint2_radial_3059_7736)"/>
<path d="M15.1144 13.1633H16.1153V10.2475H17.1225V9.48987H14.1072V10.2475H15.1144V13.1633Z" fill="url(#paint3_radial_3059_7736)"/>
</g>
<defs>
<filter id="filter0_dii_3059_7736" x="0.703091" y="0.703152" width="22.6162" height="22.6161" filterUnits="userSpaceOnUse" color-interpolation-filters="sRGB">
<feFlood flood-opacity="0" result="BackgroundImageFix"/>
<feColorMatrix in="SourceAlpha" type="matrix" values="0 0 0 0 0 0 0 0 0 0 0 0 0 0 0 0 0 0 127 0" result="hardAlpha"/>
<feOffset dx="1.0112" dy="1.0112"/>
<feGaussianBlur stdDeviation="1.0112"/>
<feComposite in2="hardAlpha" operator="out"/>
<feColorMatrix type="matrix" values="0 0 0 0 0 0 0 0 0 0 0 0 0 0 0 0 0 0 0.2 0"/>
<feBlend mode="normal" in2="BackgroundImageFix" result="effect1_dropShadow_3059_7736"/>
<feBlend mode="normal" in="SourceGraphic" in2="effect1_dropShadow_3059_7736" result="shape"/>
<feColorMatrix in="SourceAlpha" type="matrix" values="0 0 0 0 0 0 0 0 0 0 0 0 0 0 0 0 0 0 127 0" result="hardAlpha"/>
<feOffset dx="1.0112" dy="1.0112"/>
<feGaussianBlur stdDeviation="0.713028"/>
<feComposite in2="hardAlpha" operator="arithmetic" k2="-1" k3="1"/>
<feColorMatrix type="matrix" values="0 0 0 0 1 0 0 0 0 0.826864 0 0 0 0 0.395947 0 0 0 1 0"/>
<feBlend mode="normal" in2="shape" result="effect2_innerShadow_3059_7736"/>
<feColorMatrix in="SourceAlpha" type="matrix" values="0 0 0 0 0 0 0 0 0 0 0 0 0 0 0 0 0 0 127 0" result="hardAlpha"/>
<feOffset dx="-1.0112" dy="-1.0112"/>
<feGaussianBlur stdDeviation="1.0112"/>
<feComposite in2="hardAlpha" operator="arithmetic" k2="-1" k3="1"/>
<feColorMatrix type="matrix" values="0 0 0 0 0 0 0 0 0 0 0 0 0 0 0 0 0 0 0.2 0"/>
<feBlend mode="normal" in2="effect2_innerShadow_3059_7736" result="effect3_innerShadow_3059_7736"/>
</filter>
<radialGradient id="paint0_radial_3059_7736" cx="0" cy="0" r="1" gradientUnits="userSpaceOnUse" gradientTransform="translate(11 11.0001) scale(9.28572)">
<stop offset="0.473958" stop-color="#FFC640"/>
<stop offset="1" stop-color="#F2AF13"/>
</radialGradient>
<radialGradient id="paint1_radial_3059_7736" cx="0" cy="0" r="1" gradientUnits="userSpaceOnUse" gradientTransform="translate(11 11.0001) scale(9.28572)">
<stop offset="0.473958" stop-color="#FFC640"/>
<stop offset="1" stop-color="#F2AF13"/>
</radialGradient>
<radialGradient id="paint2_radial_3059_7736" cx="0" cy="0" r="1" gradientUnits="userSpaceOnUse" gradientTransform="translate(11 11.0001) scale(9.28572)">
<stop offset="0.473958" stop-color="#FFC640"/>
<stop offset="1" stop-color="#F2AF13"/>
</radialGradient>
<radialGradient id="paint3_radial_3059_7736" cx="0" cy="0" r="1" gradientUnits="userSpaceOnUse" gradientTransform="translate(11 11.0001) scale(9.28572)">
<stop offset="0.473958" stop-color="#FFC640"/>
<stop offset="1" stop-color="#F2AF13"/>
</radialGradient>
</defs>
</svg>
