<svg width="24" height="24" viewBox="0 0 24 24" fill="none" xmlns="http://www.w3.org/2000/svg">
<g filter="url(#filter0_dii_3059_7773)">
<path fill-rule="evenodd" clip-rule="evenodd" d="M8.50984 1.742C8.84298 1.6458 9.19709 1.80276 9.34955 2.11419C9.50838 2.43865 9.74845 2.70713 10.0398 2.89289C10.331 3.07847 10.6631 3.17517 10.9998 3.17508C11.3365 3.17517 11.6691 3.07847 11.9602 2.89289C12.2516 2.70713 12.4916 2.43865 12.6505 2.11419C12.8029 1.80276 13.157 1.6458 13.4902 1.742C14.9273 2.15699 16.2446 2.92488 17.332 3.97826C17.5518 4.19114 17.6115 4.52034 17.4806 4.79688C17.3371 5.10018 17.2701 5.4384 17.2875 5.7787C17.3049 6.11899 17.4059 6.44718 17.5789 6.73182C17.7518 7.0163 17.9899 7.24656 18.268 7.40326C18.546 7.55984 18.8558 7.63855 19.1682 7.63388C19.4872 7.62911 19.7707 7.83646 19.8628 8.14193C20.144 9.07498 20.2866 10.0468 20.2857 11.0239C20.2857 11.6855 20.2211 12.3325 20.0983 12.9575C20.0271 13.3199 19.6912 13.5683 19.3238 13.5302C18.9624 13.4927 18.5969 13.568 18.2735 13.7489C17.9496 13.9301 17.6805 14.2103 17.5047 14.5577C17.3287 14.9053 17.2555 15.3018 17.2965 15.6958C17.3375 16.0897 17.4903 16.4588 17.7315 16.7565C17.955 17.0322 17.9421 17.4302 17.7013 17.6909C16.5925 18.8911 15.2013 19.775 13.6616 20.2532C13.4805 20.3095 13.2844 20.2914 13.1166 20.2029C12.9488 20.1145 12.8231 19.9629 12.7672 19.7816C12.6437 19.3812 12.4027 19.037 12.0843 18.7953C11.7663 18.5541 11.3866 18.4265 11 18.4265C10.6134 18.4265 10.2337 18.5541 9.91574 18.7953C9.59731 19.037 9.35634 19.3812 9.23286 19.7816C9.17696 19.9629 9.05125 20.1145 8.88345 20.2029C8.71566 20.2914 8.51956 20.3095 8.33841 20.2532C6.79872 19.775 5.40752 18.8911 4.29876 17.6909C4.05793 17.4302 4.04505 17.0322 4.26851 16.7565C4.50976 16.4588 4.66256 16.0897 4.70356 15.6958C4.74455 15.3018 4.67135 14.9053 4.49536 14.5577C4.3195 14.2103 4.05042 13.9301 3.72656 13.7489C3.40309 13.568 3.03767 13.4927 2.67623 13.5302C2.30871 13.5683 1.97281 13.3198 1.90166 12.9573C1.77675 12.3207 1.71399 11.6728 1.7143 11.0233C1.71433 10.0212 1.86186 9.05246 2.13746 8.14129C2.22861 7.83993 2.50632 7.6338 2.82115 7.6338H2.85715C3.16741 7.6339 3.47437 7.55182 3.74889 7.39326C4.02362 7.23458 4.25819 7.00374 4.42802 6.71994C4.59793 6.43599 4.69661 6.10958 4.71276 5.77162C4.72892 5.43365 4.66187 5.09799 4.51936 4.79681C4.38851 4.52028 4.44829 4.19112 4.66802 3.97826C5.75538 2.92489 7.07274 2.15699 8.50984 1.742ZM6.00326 4.6924C6.11182 5.0631 6.15828 5.45119 6.1397 5.83983C6.11244 6.41011 5.94592 6.96544 5.65388 7.45348C5.36176 7.94166 4.95288 8.34758 4.46341 8.6303C4.12619 8.82509 3.75893 8.95659 3.3788 9.01953C3.22467 9.65995 3.14287 10.3312 3.14287 11.0233C3.14268 11.3875 3.16562 11.7514 3.21144 12.112C3.63481 12.1593 4.04689 12.2912 4.42399 12.5022C5.00155 12.8253 5.46878 13.3176 5.76989 13.9124C6.07088 14.5069 6.19362 15.179 6.12445 15.8436C6.07794 16.2906 5.94583 16.7225 5.73701 17.1145C6.44894 17.7858 7.27164 18.3144 8.16352 18.6753C8.38756 18.2805 8.68868 17.9332 9.05219 17.6573C9.61476 17.2304 10.2968 16.998 11 16.998C11.7032 16.998 12.3853 17.2304 12.9478 17.6573C13.3113 17.9332 13.6125 18.2805 13.8365 18.6753C14.7284 18.3144 15.5511 17.7858 16.263 17.1145C16.0542 16.7225 15.9221 16.2906 15.8756 15.8436C15.8064 15.179 15.9291 14.5069 16.2301 13.9124C16.5312 13.3176 16.9985 12.8253 17.576 12.5022C17.9531 12.2912 18.3652 12.1593 18.7886 12.112C18.8338 11.756 18.8572 11.3926 18.8572 11.0233C18.8577 10.3473 18.7782 9.67397 18.621 9.01979C18.2525 8.95876 17.8959 8.83326 17.5668 8.6479C17.0709 8.36851 16.6556 7.96329 16.3581 7.47373C16.0606 6.98432 15.8901 6.42581 15.8608 5.85161C15.8407 5.45905 15.887 5.06684 15.9967 4.69237C15.284 4.07804 14.4739 3.60087 13.6044 3.2817C13.3642 3.60367 13.068 3.88079 12.7281 4.09751C12.2103 4.42761 11.6122 4.60374 11.0002 4.60365M6.00326 4.6924C6.71595 4.07806 7.52608 3.60088 8.39562 3.2817C8.63584 3.60367 8.93197 3.88079 9.27192 4.09751C9.78973 4.42761 10.3882 4.60374 11.0002 4.60365" fill="url(#paint0_radial_3059_7773)"/>
<path fill-rule="evenodd" clip-rule="evenodd" d="M8.36371 8.32137C9.05789 7.59916 10.0056 7.18792 11 7.18792C11.4918 7.18792 11.978 7.28873 12.4307 7.48382C12.8834 7.67887 13.2927 7.96396 13.6363 8.32137C13.9798 8.67872 14.2508 9.10144 14.4353 9.5647C14.6197 10.0279 14.7143 10.5235 14.7143 11.0233C14.7143 11.5231 14.6197 12.0187 14.4353 12.4819C14.2508 12.9452 13.9798 13.3679 13.6363 13.7252C13.2927 14.0827 12.8834 14.3677 12.4307 14.5628C11.978 14.7579 11.4918 14.8587 11 14.8587C10.0056 14.8587 9.05789 14.4475 8.36371 13.7252C7.67044 13.004 7.28571 12.0316 7.28571 11.0233C7.28571 10.015 7.67044 9.04261 8.36371 8.32137ZM11 8.61649C10.4031 8.61649 9.82467 8.86291 9.39364 9.31134C8.96169 9.76073 8.71428 10.3761 8.71428 11.0233C8.71428 11.6706 8.96169 12.2859 9.39364 12.7353C9.82467 13.1837 10.4031 13.4301 11 13.4301C11.2961 13.4301 11.5901 13.3695 11.8654 13.2509C12.1407 13.1322 12.3927 12.9575 12.6063 12.7353C12.82 12.513 12.9909 12.2476 13.108 11.9535C13.2251 11.6594 13.2857 11.3432 13.2857 11.0233C13.2857 10.7034 13.2251 10.3872 13.108 10.0931C12.9909 9.79905 12.82 9.53363 12.6063 9.31134C12.3927 9.08911 12.1407 8.9144 11.8654 8.79575C11.5901 8.67714 11.2961 8.61649 11 8.61649Z" fill="url(#paint1_radial_3059_7773)"/>
</g>
<defs>
<filter id="filter0_dii_3059_7773" x="0.703091" y="0.702664" width="22.6162" height="22.6161" filterUnits="userSpaceOnUse" color-interpolation-filters="sRGB">
<feFlood flood-opacity="0" result="BackgroundImageFix"/>
<feColorMatrix in="SourceAlpha" type="matrix" values="0 0 0 0 0 0 0 0 0 0 0 0 0 0 0 0 0 0 127 0" result="hardAlpha"/>
<feOffset dx="1.0112" dy="1.0112"/>
<feGaussianBlur stdDeviation="1.0112"/>
<feComposite in2="hardAlpha" operator="out"/>
<feColorMatrix type="matrix" values="0 0 0 0 0 0 0 0 0 0 0 0 0 0 0 0 0 0 0.2 0"/>
<feBlend mode="normal" in2="BackgroundImageFix" result="effect1_dropShadow_3059_7773"/>
<feBlend mode="normal" in="SourceGraphic" in2="effect1_dropShadow_3059_7773" result="shape"/>
<feColorMatrix in="SourceAlpha" type="matrix" values="0 0 0 0 0 0 0 0 0 0 0 0 0 0 0 0 0 0 127 0" result="hardAlpha"/>
<feOffset dx="1.0112" dy="1.0112"/>
<feGaussianBlur stdDeviation="0.713028"/>
<feComposite in2="hardAlpha" operator="arithmetic" k2="-1" k3="1"/>
<feColorMatrix type="matrix" values="0 0 0 0 1 0 0 0 0 0.826864 0 0 0 0 0.395947 0 0 0 1 0"/>
<feBlend mode="normal" in2="shape" result="effect2_innerShadow_3059_7773"/>
<feColorMatrix in="SourceAlpha" type="matrix" values="0 0 0 0 0 0 0 0 0 0 0 0 0 0 0 0 0 0 127 0" result="hardAlpha"/>
<feOffset dx="-1.0112" dy="-1.0112"/>
<feGaussianBlur stdDeviation="1.0112"/>
<feComposite in2="hardAlpha" operator="arithmetic" k2="-1" k3="1"/>
<feColorMatrix type="matrix" values="0 0 0 0 0 0 0 0 0 0 0 0 0 0 0 0 0 0 0.2 0"/>
<feBlend mode="normal" in2="effect2_innerShadow_3059_7773" result="effect3_innerShadow_3059_7773"/>
</filter>
<radialGradient id="paint0_radial_3059_7773" cx="0" cy="0" r="1" gradientUnits="userSpaceOnUse" gradientTransform="translate(11 10.9996) scale(9.28572)">
<stop offset="0.473958" stop-color="#FFC640"/>
<stop offset="1" stop-color="#F2AF13"/>
</radialGradient>
<radialGradient id="paint1_radial_3059_7773" cx="0" cy="0" r="1" gradientUnits="userSpaceOnUse" gradientTransform="translate(11 10.9996) scale(9.28572)">
<stop offset="0.473958" stop-color="#FFC640"/>
<stop offset="1" stop-color="#F2AF13"/>
</radialGradient>
</defs>
</svg>
