<svg width="20" height="20" viewBox="0 0 20 20" fill="none" xmlns="http://www.w3.org/2000/svg">
<path fill-rule="evenodd" clip-rule="evenodd" d="M2.5 2.5C2.5 1.11929 3.61929 0 5 0H15C16.3807 0 17.5 1.11929 17.5 2.5V3.91695L18.6765 4.5444C19.4911 4.97888 20 5.827 20 6.75028V17.5003C20 18.881 18.8807 20.0003 17.5 20.0003H2.5C1.11929 20.0003 0 18.881 0 17.5003V6.75028C0 5.827 0.508871 4.97888 1.32353 4.5444L2.5 3.91695V2.5ZM2.5 5.33361L1.91176 5.64734C1.50444 5.86458 1.25 6.28864 1.25 6.75028V7.77141L2.5 8.52141V5.33361ZM3.75 9.27141L8.4375 12.0839L10 11.1464L11.5625 12.0839L16.25 9.27141V2.5C16.25 1.80964 15.6904 1.25 15 1.25H5C4.30964 1.25 3.75 1.80964 3.75 2.5V9.27141ZM17.5 8.52141L18.75 7.77141V6.75028C18.75 6.28864 18.4956 5.86458 18.0882 5.64734L17.5 5.33361V8.52141ZM9.99995 9.97615C7.92014 9.97615 6.23412 8.31493 6.23412 6.26571C6.23412 4.21649 7.92014 2.55527 9.99995 2.55527C12.0798 2.55527 13.7658 4.21649 13.7658 6.26571C13.7658 8.31493 12.0798 9.97615 9.99995 9.97615ZM9.99995 10.5062C12.3769 10.5062 14.3037 8.60768 14.3037 6.26571C14.3037 3.92374 12.3769 2.0252 9.99995 2.0252C7.62302 2.0252 5.69615 3.92374 5.69615 6.26571C5.69615 8.60768 7.62302 10.5062 9.99995 10.5062ZM18.75 9.22915L12.7773 12.8128L18.75 16.3964V9.22915ZM18.7066 17.8281L10 12.6041L1.29343 17.8281C1.43744 18.3594 1.92308 18.7503 2.5 18.7503H17.5C18.0769 18.7503 18.5626 18.3594 18.7066 17.8281ZM1.25 16.3964L7.22272 12.8128L1.25 9.22915V16.3964Z" fill="black"/>
<path d="M12.087 7.30334V7.30343C12.0872 7.39179 12.0543 7.47701 11.9948 7.54235C11.9353 7.60768 11.8535 7.64842 11.7655 7.65655C11.6776 7.66468 11.5897 7.63963 11.5193 7.5863C11.4489 7.53303 11.4009 7.4554 11.3848 7.36863C11.381 7.34699 11.379 7.32508 11.3789 7.30311L11.3789 6.98613L11.3789 6.9856C11.378 6.88414 11.3451 6.78555 11.2848 6.70395C11.2245 6.62235 11.1399 6.56193 11.0431 6.53135C10.9464 6.50076 10.8424 6.50157 10.7462 6.53366C10.6499 6.56576 10.5663 6.62749 10.5073 6.71002L10.5072 6.71012L10.2902 7.01478L10.2902 7.0148L9.94188 7.50323C9.88541 7.57445 9.8037 7.62123 9.71366 7.63387C9.62315 7.64658 9.53123 7.62379 9.45713 7.57027C9.38304 7.51676 9.33251 7.43667 9.31611 7.34675C9.29978 7.25719 9.31857 7.1648 9.36856 7.08874L10.7587 5.14259C10.7912 5.09935 10.8333 5.06414 10.8816 5.03969C10.93 5.01517 10.9834 5.00211 11.0377 5.00152H11.733C11.8269 5.00152 11.9169 5.03883 11.9833 5.10523C12.0497 5.17163 12.087 5.2617 12.087 5.3556V7.30334Z" fill="black" stroke="black" stroke-width="0.126582"/>
<path d="M11.1128 7.23404C11.1128 7.39118 10.9854 7.51856 10.8283 7.51856C10.6711 7.51856 10.5438 7.39118 10.5438 7.23404C10.5438 7.0769 10.6711 6.94952 10.8283 6.94952C10.9854 6.94952 11.1128 7.0769 11.1128 7.23404Z" fill="black" stroke="black" stroke-width="0.126582"/>
<path d="M8.68192 7.50835C8.68192 7.50835 8.68192 7.50835 8.68191 7.50835C8.63831 7.5693 8.5765 7.61485 8.50536 7.63843C8.43423 7.66202 8.35744 7.66242 8.28606 7.63959C8.21468 7.61676 8.15239 7.57187 8.10814 7.51138C8.0639 7.45089 8.03999 7.37792 8.03985 7.30298L8.03985 5.35536C8.03985 5.26145 8.07716 5.17139 8.14356 5.10499C8.20996 5.03858 8.30003 5.00128 8.39393 5.00128H9.78513C9.85009 5.00137 9.91377 5.01933 9.96921 5.05319C10.0247 5.08706 10.0697 5.13553 10.0995 5.1933C10.1292 5.25107 10.1425 5.31591 10.1378 5.38071C10.1332 5.4455 10.1108 5.50775 10.0731 5.56066C10.0731 5.56068 10.0731 5.56071 10.0731 5.56073L8.68192 7.50835ZM8.48243 5.91759C8.5386 5.95511 8.60463 5.97515 8.67218 5.97515C8.76276 5.97515 8.84963 5.93916 8.91369 5.87511C8.97774 5.81106 9.01372 5.72419 9.01372 5.63361C9.01372 5.56606 8.99369 5.50002 8.95616 5.44386C8.91863 5.38769 8.86529 5.34392 8.80288 5.31807C8.74047 5.29222 8.6718 5.28545 8.60555 5.29863C8.5393 5.31181 8.47844 5.34434 8.43068 5.3921C8.38291 5.43987 8.35038 5.50072 8.33721 5.56698C8.32403 5.63323 8.33079 5.7019 8.35664 5.76431C8.38249 5.82672 8.42627 5.88006 8.48243 5.91759Z" fill="black" stroke="black" stroke-width="0.126582"/>
</svg>
