<svg width="20" height="15" viewBox="0 0 20 15" fill="none" xmlns="http://www.w3.org/2000/svg">
<path fill-rule="evenodd" clip-rule="evenodd" d="M0 2.5C0 1.11929 1.11929 0 2.5 0H17.5C18.8807 0 20 1.11929 20 2.5V12.5C20 13.8807 18.8807 15 17.5 15H2.5C1.11929 15 0 13.8807 0 12.5V2.5ZM2.5 1.25C1.80964 1.25 1.25 1.80964 1.25 2.5V2.77113L5.29334 5.19713C5.11585 5.59828 5.01774 6.02976 5.00213 6.48015L1.25 4.22887V11.3815L5.35544 8.8551C5.12613 8.28149 5 7.65547 5 7C5 4.23858 7.23858 2 10 2C12.7614 2 15 4.23858 15 7C15 7.65547 14.8739 8.28149 14.6446 8.8551L18.75 11.3815V4.22887L14.998 6.48009C14.9824 6.02971 14.8842 5.59823 14.7067 5.19709L18.75 2.77113V2.5C18.75 1.80964 18.1904 1.25 17.5 1.25H2.5ZM14.0378 9.94946C13.1282 11.1926 11.6584 12 10 12C8.3416 12 6.87177 11.1926 5.96216 9.94946L1.29221 12.8233C1.43468 13.3569 1.92144 13.75 2.5 13.75H17.5C18.0786 13.75 18.5653 13.3569 18.7078 12.8233L14.0378 9.94946ZM5.625 7C5.625 9.41625 7.58375 11.375 10 11.375C12.4162 11.375 14.375 9.41625 14.375 7C14.375 4.58375 12.4162 2.625 10 2.625C7.58375 2.625 5.625 4.58375 5.625 7Z" fill="#FFC640"/>
<path d="M12.3414 8.15199L12.3414 8.15209C12.3415 8.25952 12.3015 8.36313 12.2292 8.44257C12.1569 8.52201 12.0575 8.57154 11.9505 8.58143C11.8435 8.59132 11.7367 8.56085 11.651 8.49602C11.5654 8.43123 11.5071 8.33681 11.4876 8.23128C11.483 8.20502 11.4805 8.17842 11.4803 8.15176L11.4803 7.7767L11.4803 7.77616C11.4793 7.65857 11.4412 7.5443 11.3713 7.44973C11.3014 7.35515 11.2033 7.28513 11.0912 7.24967C10.9791 7.21422 10.8586 7.21516 10.747 7.25236C10.6355 7.28956 10.5385 7.36111 10.4701 7.45676L10.4701 7.45686L10.2133 7.81731L10.2133 7.81734L9.80105 8.39546C9.73238 8.48218 9.63295 8.53915 9.52337 8.55453C9.41332 8.56998 9.30156 8.54227 9.21147 8.47721C9.12138 8.41214 9.05994 8.31476 9.04 8.20543C9.02013 8.09647 9.04303 7.98405 9.1039 7.89154L10.7488 5.58869C10.7884 5.53606 10.8396 5.49321 10.8983 5.46345C10.9572 5.43364 11.0222 5.41776 11.0882 5.41705H11.9109C12.025 5.41705 12.1345 5.46241 12.2153 5.54315C12.296 5.62388 12.3414 5.73339 12.3414 5.84756L12.3414 8.15199Z" fill="#FFC640" stroke="#FFC640" stroke-width="0.126582"/>
<path d="M11.1894 8.06971C11.1894 8.26202 11.0335 8.41792 10.8412 8.41792C10.6489 8.41792 10.493 8.26202 10.493 8.06971C10.493 7.87739 10.6489 7.72149 10.8412 7.72149C11.0335 7.72149 11.1894 7.87739 11.1894 8.06971Z" fill="#FFC640" stroke="#FFC640" stroke-width="0.126582"/>
<path d="M7.9606 5.41705H9.60658C9.68556 5.41716 9.763 5.439 9.8304 5.48017C9.89782 5.52135 9.95261 5.58028 9.98876 5.65052C10.0249 5.72076 10.0411 5.7996 10.0354 5.87839C10.0297 5.95719 10.0025 6.03291 9.95669 6.09726L8.31075 8.40157C8.31075 8.40158 8.31075 8.40158 8.31075 8.40158C8.25773 8.47569 8.18257 8.53107 8.09609 8.55974C8.0096 8.58842 7.91624 8.58891 7.82945 8.56115C7.74266 8.53339 7.66691 8.47881 7.61312 8.40526C7.55932 8.33172 7.53025 8.243 7.53009 8.15188L7.53009 5.84756C7.53009 5.73339 7.57545 5.62388 7.65618 5.54315C7.73692 5.46241 7.84642 5.41705 7.9606 5.41705ZM8.07175 6.50312C8.13629 6.54624 8.21218 6.56926 8.28981 6.56926C8.3939 6.56926 8.49373 6.52791 8.56734 6.4543C8.64095 6.3807 8.6823 6.28086 8.6823 6.17677C8.6823 6.09914 8.65928 6.02326 8.61615 5.95871C8.57302 5.89416 8.51173 5.84386 8.44001 5.81415C8.36829 5.78444 8.28937 5.77667 8.21323 5.79182C8.1371 5.80696 8.06716 5.84434 8.01227 5.89923C7.95738 5.95412 7.92 6.02406 7.90485 6.1002C7.88971 6.17633 7.89748 6.25525 7.92719 6.32697C7.95689 6.39869 8.0072 6.45999 8.07175 6.50312Z" fill="#FFC640" stroke="#FFC640" stroke-width="0.126582"/>
</svg>
