<svg width="185" height="33" viewBox="0 0 185 33" fill="none" xmlns="http://www.w3.org/2000/svg">
<path d="M28.2803 0H4.71338C2.11025 0 0 2.11066 0 4.71429V28.2857C0 30.8893 2.11025 33 4.71338 33H28.2803C30.8834 33 32.9936 30.8893 32.9936 28.2857V4.71429C32.9936 2.11066 30.8834 0 28.2803 0Z" fill="url(#paint0_radial_3911_9507)"/>
<path d="M14.9252 8.64453H7.06958C6.44455 8.64453 5.84511 8.89287 5.40315 9.33492C4.96118 9.77697 4.71289 10.3765 4.71289 11.0017V22.0017C4.71379 22.5006 4.87293 22.9863 5.16741 23.389C5.46189 23.7917 5.87652 24.0905 6.35161 24.2425C6.82671 24.3945 7.33777 24.3918 7.81124 24.2348C8.2847 24.0778 8.69615 23.7746 8.98635 23.3688V23.3688L16.842 12.3688C17.0928 12.0165 17.2419 11.6019 17.2728 11.1705C17.3038 10.739 17.2155 10.3074 17.0175 9.92284C16.8196 9.53827 16.5197 9.21558 16.1507 8.99011C15.7816 8.76464 15.3577 8.64509 14.9252 8.64453ZM8.6407 14.1445C8.32996 14.1445 8.0262 14.0524 7.76783 13.8797C7.50946 13.707 7.30809 13.4616 7.18917 13.1745C7.07026 12.8873 7.03914 12.5714 7.09977 12.2665C7.16039 11.9617 7.31002 11.6817 7.52975 11.4619C7.74948 11.2422 8.02942 11.0925 8.33419 11.0319C8.63896 10.9712 8.95486 11.0024 9.24195 11.1213C9.52903 11.2402 9.77441 11.4416 9.94705 11.7001C10.1197 11.9585 10.2118 12.2623 10.2118 12.5731C10.2118 12.9899 10.0463 13.3896 9.75166 13.6843C9.45701 13.979 9.05739 14.1445 8.6407 14.1445Z" fill="#0D0A03"/>
<path d="M20.8174 23.5692C21.9021 23.5692 22.7813 22.6898 22.7813 21.6049C22.7813 20.5201 21.9021 19.6406 20.8174 19.6406C19.7328 19.6406 18.8535 20.5201 18.8535 21.6049C18.8535 22.6898 19.7328 23.5692 20.8174 23.5692Z" fill="#0D0A03"/>
<path d="M28.2799 11.0017V22.0017C28.2808 22.5899 28.0618 23.1572 27.6659 23.5921C27.27 24.0271 26.7258 24.2983 26.1402 24.3524C25.5546 24.4066 24.9699 24.2397 24.501 23.8848C24.032 23.5298 23.7128 23.0122 23.6058 22.4338C23.5807 22.2911 23.5676 22.1466 23.5666 22.0017V20.2102C23.5624 19.7127 23.4009 19.2292 23.1052 18.8291C22.8095 18.4289 22.3948 18.1326 21.9204 17.9826C21.4461 17.8326 20.9364 17.8366 20.4645 17.994C19.9926 18.1514 19.5825 18.4541 19.2931 18.8588L18.0676 20.5795L16.0959 23.3452C15.7198 23.8235 15.1734 24.1378 14.571 24.2224C13.9685 24.3069 13.3568 24.1552 12.8636 23.799C12.3704 23.4428 12.0341 22.9096 11.925 22.311C11.8158 21.7124 11.9423 21.0948 12.278 20.5874V20.5874L20.1337 9.58739C20.3508 9.2978 20.6317 9.06212 20.9545 8.89861C21.2774 8.73511 21.6336 8.64816 21.9954 8.64453H25.9233C26.5483 8.64453 27.1477 8.89287 27.5897 9.33492C28.0316 9.77697 28.2799 10.3765 28.2799 11.0017V11.0017Z" fill="#FFFDFA"/>
<path d="M43.3574 8.21592H47.8264L52.5465 19.7316H52.7473L57.4674 8.21592H61.9364V25.3555H58.4215V14.1997H58.2792L53.8437 25.2718H51.4502L47.0146 14.1579H46.8724V25.3555H43.3574V8.21592ZM68.5207 25.5982C67.7005 25.5982 66.9696 25.4559 66.328 25.1714C65.6864 24.8812 65.1787 24.4544 64.8049 23.8909C64.4366 23.3218 64.2525 22.6133 64.2525 21.7652C64.2525 21.0511 64.3836 20.4513 64.6459 19.9659C64.9081 19.4805 65.2652 19.0899 65.7171 18.7942C66.169 18.4985 66.6823 18.2754 67.257 18.1247C67.8372 17.9741 68.4453 17.8681 69.0814 17.8067C69.829 17.7286 70.4316 17.6561 70.8891 17.5891C71.3466 17.5166 71.6785 17.4106 71.885 17.2711C72.0914 17.1316 72.1946 16.9252 72.1946 16.6518V16.6016C72.1946 16.0715 72.0272 15.6615 71.6925 15.3713C71.3633 15.0812 70.8946 14.9362 70.2865 14.9362C69.6449 14.9362 69.1344 15.0784 68.755 15.363C68.3756 15.6419 68.1245 15.9934 68.0018 16.4175L64.7044 16.1497C64.8718 15.3686 65.201 14.6935 65.692 14.1244C66.1829 13.5497 66.8162 13.1089 67.5917 12.8021C68.3728 12.4896 69.2767 12.3334 70.3032 12.3334C71.0174 12.3334 71.7009 12.4171 72.3536 12.5845C73.012 12.7519 73.595 13.0113 74.1027 13.3628C74.616 13.7143 75.0205 14.1662 75.3162 14.7186C75.6119 15.2653 75.7598 15.9209 75.7598 16.6853V25.3555H72.3787V23.5729H72.2783C72.0719 23.9746 71.7957 24.3289 71.4498 24.6357C71.1039 24.937 70.6882 25.1741 70.2028 25.3471C69.7174 25.5145 69.1567 25.5982 68.5207 25.5982ZM69.5417 23.1377C70.0661 23.1377 70.5292 23.0345 70.9309 22.8281C71.3326 22.616 71.6478 22.3315 71.8766 21.9744C72.1054 21.6174 72.2197 21.2129 72.2197 20.7609V19.3968C72.1081 19.4693 71.9547 19.5363 71.7594 19.5977C71.5697 19.6534 71.3549 19.7064 71.115 19.7567C70.8751 19.8013 70.6352 19.8431 70.3953 19.8822C70.1554 19.9157 69.9378 19.9464 69.7425 19.9743C69.3241 20.0356 68.9586 20.1333 68.6462 20.2672C68.3338 20.4011 68.0911 20.5824 67.9181 20.8111C67.7451 21.0343 67.6587 21.3133 67.6587 21.648C67.6587 22.1334 67.8344 22.5045 68.1859 22.7611C68.543 23.0122 68.9949 23.1377 69.5417 23.1377ZM82.0909 17.9239V25.3555H78.5257V12.5008H81.9235V14.7688H82.0741C82.3587 14.0212 82.8357 13.4298 83.5052 12.9946C84.1747 12.5538 84.9865 12.3334 85.9406 12.3334C86.8333 12.3334 87.6116 12.5287 88.2755 12.9193C88.9394 13.3098 89.4555 13.8677 89.8237 14.593C90.192 15.3128 90.3761 16.172 90.3761 17.1707V25.3555H86.8109V17.8067C86.8165 17.02 86.6157 16.4063 86.2084 15.9655C85.8011 15.5192 85.2404 15.296 84.5262 15.296C84.0464 15.296 83.6224 15.3992 83.2541 15.6057C82.8915 15.8121 82.6069 16.1134 82.4005 16.5095C82.1997 16.9001 82.0964 17.3715 82.0909 17.9239ZM100.023 12.5008V15.1789H92.2821V12.5008H100.023ZM94.0396 9.42104H97.6048V21.4053C97.6048 21.7345 97.655 21.9912 97.7554 22.1753C97.8558 22.3538 97.9953 22.4793 98.1738 22.5519C98.358 22.6244 98.57 22.6607 98.8099 22.6607C98.9773 22.6607 99.1446 22.6467 99.312 22.6188C99.4794 22.5854 99.6077 22.5602 99.697 22.5435L100.258 25.1965C100.079 25.2523 99.8281 25.3164 99.5045 25.3889C99.1809 25.4671 98.7876 25.5145 98.3245 25.5312C97.4653 25.5647 96.7121 25.4503 96.0649 25.1881C95.4233 24.9259 94.9239 24.5186 94.5668 23.9662C94.2098 23.4139 94.034 22.7165 94.0396 21.874V9.42104ZM106.187 8.21592V25.3555H102.622V8.21592H106.187ZM114.901 25.6065C113.579 25.6065 112.441 25.3387 111.487 24.8031C110.538 24.2619 109.807 23.4976 109.294 22.51C108.781 21.5169 108.524 20.3425 108.524 18.9867C108.524 17.6644 108.781 16.5039 109.294 15.5052C109.807 14.5066 110.53 13.7282 111.462 13.1703C112.399 12.6124 113.498 12.3334 114.759 12.3334C115.607 12.3334 116.396 12.4701 117.127 12.7435C117.864 13.0113 118.505 13.4158 119.052 13.957C119.605 14.4982 120.034 15.1789 120.341 15.999C120.648 16.8136 120.801 17.7676 120.801 18.8612V19.8404H109.947V17.631H117.445C117.445 17.1177 117.334 16.663 117.111 16.2668C116.887 15.8707 116.578 15.561 116.182 15.3379C115.791 15.1091 115.336 14.9947 114.818 14.9947C114.276 14.9947 113.797 15.1203 113.378 15.3713C112.965 15.6168 112.642 15.9488 112.407 16.3672C112.173 16.7801 112.053 17.2404 112.047 17.7481V19.8487C112.047 20.4848 112.165 21.0343 112.399 21.4974C112.639 21.9605 112.976 22.3176 113.412 22.5686C113.847 22.8197 114.363 22.9452 114.96 22.9452C115.356 22.9452 115.719 22.8894 116.048 22.7778C116.377 22.6663 116.659 22.4989 116.893 22.2757C117.127 22.0525 117.306 21.7792 117.429 21.4556L120.726 21.6731C120.559 22.4654 120.215 23.1572 119.697 23.7486C119.183 24.3345 118.519 24.792 117.705 25.1211C116.896 25.4447 115.961 25.6065 114.901 25.6065ZM123.195 25.3555V8.21592H129.957C131.257 8.21592 132.364 8.4642 133.279 8.96075C134.194 9.45173 134.892 10.1352 135.372 11.0111C135.857 11.8815 136.1 12.8858 136.1 14.024C136.1 15.1621 135.854 16.1664 135.363 17.0368C134.872 17.9071 134.161 18.585 133.229 19.0704C132.303 19.5558 131.182 19.7985 129.865 19.7985H125.555V16.8945H129.279C129.976 16.8945 130.551 16.7745 131.003 16.5346C131.461 16.2891 131.801 15.9516 132.024 15.522C132.253 15.0868 132.367 14.5875 132.367 14.024C132.367 13.4549 132.253 12.9583 132.024 12.5343C131.801 12.1047 131.461 11.7727 131.003 11.5384C130.546 11.2985 129.965 11.1785 129.262 11.1785H126.819V25.3555H123.195ZM141.952 8.21592V25.3555H138.386V8.21592H141.952ZM148.473 25.5982C147.653 25.5982 146.922 25.4559 146.28 25.1714C145.639 24.8812 145.131 24.4544 144.757 23.8909C144.389 23.3218 144.205 22.6133 144.205 21.7652C144.205 21.0511 144.336 20.4513 144.598 19.9659C144.861 19.4805 145.218 19.0899 145.67 18.7942C146.121 18.4985 146.635 18.2754 147.209 18.1247C147.79 17.9741 148.398 17.8681 149.034 17.8067C149.781 17.7286 150.384 17.6561 150.842 17.5891C151.299 17.5166 151.631 17.4106 151.837 17.2711C152.044 17.1316 152.147 16.9252 152.147 16.6518V16.6016C152.147 16.0715 151.98 15.6615 151.645 15.3713C151.316 15.0812 150.847 14.9362 150.239 14.9362C149.597 14.9362 149.087 15.0784 148.707 15.363C148.328 15.6419 148.077 15.9934 147.954 16.4175L144.657 16.1497C144.824 15.3686 145.153 14.6935 145.644 14.1244C146.135 13.5497 146.769 13.1089 147.544 12.8021C148.325 12.4896 149.229 12.3334 150.256 12.3334C150.97 12.3334 151.653 12.4171 152.306 12.5845C152.964 12.7519 153.548 13.0113 154.055 13.3628C154.569 13.7143 154.973 14.1662 155.269 14.7186C155.564 15.2653 155.712 15.9209 155.712 16.6853V25.3555H152.331V23.5729H152.231C152.024 23.9746 151.748 24.3289 151.402 24.6357C151.056 24.937 150.641 25.1741 150.155 25.3471C149.67 25.5145 149.109 25.5982 148.473 25.5982ZM149.494 23.1377C150.019 23.1377 150.482 23.0345 150.883 22.8281C151.285 22.616 151.6 22.3315 151.829 21.9744C152.058 21.6174 152.172 21.2129 152.172 20.7609V19.3968C152.061 19.4693 151.907 19.5363 151.712 19.5977C151.522 19.6534 151.307 19.7064 151.068 19.7567C150.828 19.8013 150.588 19.8431 150.348 19.8822C150.108 19.9157 149.89 19.9464 149.695 19.9743C149.277 20.0356 148.911 20.1333 148.599 20.2672C148.286 20.4011 148.044 20.5824 147.871 20.8111C147.698 21.0343 147.611 21.3133 147.611 21.648C147.611 22.1334 147.787 22.5045 148.138 22.7611C148.495 23.0122 148.947 23.1377 149.494 23.1377ZM164.286 25.6065C162.97 25.6065 161.837 25.3276 160.888 24.7696C159.946 24.2061 159.22 23.425 158.713 22.4263C158.21 21.4277 157.959 20.2783 157.959 18.9784C157.959 17.6616 158.213 16.5067 158.721 15.5136C159.234 14.5149 159.962 13.7366 160.905 13.1787C161.848 12.6152 162.97 12.3334 164.269 12.3334C165.391 12.3334 166.373 12.5371 167.215 12.9444C168.058 13.3516 168.725 13.9235 169.216 14.66C169.706 15.3965 169.977 16.2612 170.027 17.2544H166.663C166.568 16.6127 166.317 16.0967 165.91 15.7061C165.508 15.31 164.981 15.1119 164.328 15.1119C163.776 15.1119 163.293 15.2626 162.88 15.5638C162.473 15.8595 162.155 16.2919 161.926 16.861C161.697 17.4301 161.583 18.1191 161.583 18.9281C161.583 19.7483 161.695 20.4457 161.918 21.0204C162.147 21.595 162.467 22.033 162.88 22.3343C163.293 22.6356 163.776 22.7862 164.328 22.7862C164.735 22.7862 165.101 22.7025 165.424 22.5351C165.754 22.3678 166.024 22.1251 166.236 21.807C166.454 21.4834 166.596 21.0957 166.663 20.6438H170.027C169.972 21.6257 169.704 22.4905 169.224 23.2381C168.75 23.9802 168.094 24.5604 167.257 24.9789C166.42 25.3973 165.43 25.6065 164.286 25.6065ZM178.168 25.6065C176.846 25.6065 175.708 25.3387 174.754 24.8031C173.805 24.2619 173.074 23.4976 172.561 22.51C172.048 21.5169 171.791 20.3425 171.791 18.9867C171.791 17.6644 172.048 16.5039 172.561 15.5052C173.074 14.5066 173.797 13.7282 174.729 13.1703C175.666 12.6124 176.765 12.3334 178.026 12.3334C178.874 12.3334 179.663 12.4701 180.394 12.7435C181.131 13.0113 181.772 13.4158 182.319 13.957C182.872 14.4982 183.301 15.1789 183.608 15.999C183.915 16.8136 184.068 17.7676 184.068 18.8612V19.8404H173.214V17.631H180.712C180.712 17.1177 180.601 16.663 180.378 16.2668C180.154 15.8707 179.845 15.561 179.449 15.3379C179.058 15.1091 178.603 14.9947 178.084 14.9947C177.543 14.9947 177.063 15.1203 176.645 15.3713C176.232 15.6168 175.909 15.9488 175.674 16.3672C175.44 16.7801 175.32 17.2404 175.314 17.7481V19.8487C175.314 20.4848 175.432 21.0343 175.666 21.4974C175.906 21.9605 176.243 22.3176 176.678 22.5686C177.114 22.8197 177.63 22.9452 178.227 22.9452C178.623 22.9452 178.986 22.8894 179.315 22.7778C179.644 22.6663 179.926 22.4989 180.16 22.2757C180.394 22.0525 180.573 21.7792 180.696 21.4556L183.993 21.6731C183.826 22.4654 183.482 23.1572 182.964 23.7486C182.45 24.3345 181.786 24.792 180.972 25.1211C180.163 25.4447 179.228 25.6065 178.168 25.6065Z" fill="#FFFDFA"/>
<defs>
<radialGradient id="paint0_radial_3911_9507" cx="0" cy="0" r="1" gradientUnits="userSpaceOnUse" gradientTransform="translate(16.4968 16.5) scale(16.4968 16.5)">
<stop offset="0.473958" stop-color="#FFC640"/>
<stop offset="1" stop-color="#F2AF13"/>
</radialGradient>
</defs>
</svg>
